<?xml version="1.0" encoding="utf-8"?>
<!-- Generator: Adobe Illustrator 18.1.1, SVG Export Plug-In . SVG Version: 6.00 Build 0)  -->
<!DOCTYPE svg PUBLIC "-//W3C//DTD SVG 1.1//EN" "http://www.w3.org/Graphics/SVG/1.1/DTD/svg11.dtd">
<svg version="1.1" id="Layer_1" xmlns="http://www.w3.org/2000/svg" xmlns:xlink="http://www.w3.org/1999/xlink" x="0px" y="0px"
	 viewBox="0 0 85.9 15.2" enable-background="new 0 0 85.9 15.2" xml:space="preserve">
<g>
	<g>
		<path fill="#4A0E2A" d="M4.2,6.4L4.2,6.4L4.2,6.4c0.3-0.1,0.5-0.3,0.5-0.5V4.1H2.5v1.8c0,0.2,0.2,0.4,0.4,0.4H3l0,0.1H0.9l0-0.1H1
			c0.2,0,0.4-0.2,0.4-0.4V2c0-0.2-0.2-0.4-0.4-0.4H0.9l0-0.1H3l0,0.1H2.9C2.7,1.6,2.5,1.8,2.5,2v1.8h2.3V2c0-0.2-0.2-0.4-0.4-0.4
			H4.2l0-0.1h2.1l0,0.1H6.2C6,1.6,5.8,1.8,5.8,2v3.9c0,0.2,0.2,0.4,0.4,0.4h0.1l0,0.1H4.2z"/>
		<path fill="#4A0E2A" d="M10.5,6.4H6.9l0-0.1H7c0.2,0,0.4-0.2,0.4-0.4V2c0-0.2-0.2-0.4-0.4-0.4H6.9l0-0.1h2.7
			c0.3,0,0.7-0.1,0.8-0.1v1.2l-0.1,0V2.5c0-0.4-0.3-0.7-0.7-0.7H8.5v2h0.9c0.3,0,0.6-0.3,0.6-0.6V3.2l0.1,0v1.6l-0.1,0V4.7
			c0-0.3-0.2-0.6-0.6-0.6H8.5v2h0.9c0.7,0,1.2-0.4,1.4-1.1h0.1L10.5,6.4z"/>
	</g>
	<g>
		<path fill="#4A0E2A" d="M13.7,1.5c0.8,0,1.8,0.3,1.8,1.3c0,0.8-0.6,1.4-1.3,1.3c0.6,0.3,1,0.9,1.6,1.7c0.8,1,1.6,1.7,2.8,1.7v0.1
			C17.7,8,16,8.1,14.8,6.3c-0.4-0.5-1-1.5-1.3-1.9C13.4,4.2,13.3,4,13.2,4V3.9c0,0,0.1,0,0.2,0c0.3,0,0.9-0.2,1-0.8
			c0-0.1,0-0.2,0-0.3c0-0.6-0.4-1-1-1h-0.5v4.1c0,0.2,0.2,0.4,0.5,0.4h0.1l0,0.1h-2.1V6.3h0.1c0.2,0,0.4-0.2,0.4-0.4V2
			c0-0.2-0.2-0.4-0.4-0.4h-0.1V1.5H13.7z"/>
	</g>
	<g>
		<path fill="#4A0E2A" d="M18.6,6.4h-2.1l0-0.1h0.1c0.2,0,0.4-0.2,0.4-0.4V2c0-0.2-0.2-0.4-0.4-0.4h-0.1l0-0.1h2.1l0,0.1h-0.1
			C18.2,1.6,18,1.8,18,2v3.9C18,6.1,18.2,6.3,18.6,6.4L18.6,6.4L18.6,6.4z"/>
		<path fill="#4A0E2A" d="M23.4,2.6L23.4,2.6L23.4,2.6c-0.1-0.5-0.3-0.8-0.8-0.8h-0.9v4.1c0,0.2,0.2,0.4,0.4,0.4h0.1l0,0.1h-2.1
			l0-0.1h0.1c0.2,0,0.4-0.2,0.4-0.4V1.8h-0.9c-0.4,0-0.7,0.3-0.7,0.7v0.1l-0.1,0V1.4c0.1,0.1,0.5,0.1,0.8,0.1h2.8
			c0.3,0,0.7-0.1,0.8-0.1V2.6z"/>
		<path fill="#4A0E2A" d="M27.5,5.9c0.2,0.3,0.4,0.4,0.6,0.4h0.1v0.1h-2.2V6.3H26c0.2,0,0.4-0.2,0.3-0.4L25.9,5h-1.6l-0.4,0.9
			c-0.1,0.3,0.1,0.4,0.3,0.4h0.1v0.1h-1.5V6.3h0.1c0.2,0,0.4-0.1,0.6-0.4L25,2.3c0-0.1,0.3-0.7,0.3-0.9h0.1L27.5,5.9z M25.8,4.7
			L25.1,3l-0.7,1.7H25.8z"/>
		<path fill="#4A0E2A" d="M33.3,4.1c-0.2,0-0.4,0.1-0.3,0.3v1.2c-0.3,0.4-1.2,0.9-2.3,0.9c-1.6,0-2.6-1-2.6-2.6c0-1.6,1-2.5,2.7-2.5
			c0.8,0,1.5,0.2,1.9,0.4l0,1.2h-0.1c-0.3-1-0.9-1.3-1.7-1.3c-1.1,0-1.8,0.9-1.8,2.3c0,1.4,0.6,2.2,1.6,2.2c0.5,0,1-0.2,1.2-0.7V4.4
			c0-0.2-0.1-0.3-0.4-0.3h-0.1V4h2v0.1H33.3z"/>
		<path fill="#4A0E2A" d="M37.3,6.4h-3.6l0-0.1h0.1c0.2,0,0.4-0.2,0.4-0.4V2c0-0.2-0.2-0.4-0.4-0.4h-0.1l0-0.1h2.7
			c0.3,0,0.7-0.1,0.8-0.1v1.2l-0.1,0V2.5c0-0.4-0.3-0.7-0.7-0.7h-1.2v2h0.9c0.3,0,0.6-0.3,0.6-0.6V3.2l0.1,0v1.6l-0.1,0V4.7
			c0-0.3-0.2-0.6-0.6-0.6h-0.9v2h0.9c0.7,0,1.2-0.4,1.4-1.1h0.1L37.3,6.4z"/>
		<path fill="#4A0E2A" d="M42.2,1.5c1.2,0,1.7,0.6,1.7,1.3c0,1.2-1.3,1.9-2.2,1.2l0-0.1c0,0,0.8,0.1,1.1-0.8c0-0.1,0-0.3,0-0.4
			c0-0.6-0.3-1-0.9-1h-0.5v4.1c0,0.2,0.2,0.4,0.4,0.4H42l0,0.1h-2.1l0-0.1h0.1c0.2,0,0.4-0.2,0.4-0.4V2c0-0.2-0.2-0.4-0.4-0.4h-0.1
			l0-0.1L42.2,1.5z"/>
		<path fill="#4A0E2A" d="M46.8,1.5c0.8,0,1.7,0.3,1.7,1.3c0,0.6-0.4,1.3-1.1,1.3c0.3,0.1,0.6,0.4,0.7,0.6c0,0,0.4,0.7,0.7,1
			c0.3,0.4,0.5,0.5,0.9,0.5v0.1H49c-0.8,0-1.3-0.2-1.6-0.7c-0.2-0.3-0.5-1-0.6-1.2C46.6,4.2,46.4,4,46.3,4V3.9h0.2
			c0.4,0,0.8-0.2,0.9-0.8c0-0.1,0-0.2,0-0.3c0-0.7-0.4-1-0.8-1c-0.2,0-0.4,0-0.5,0v4.1c0,0.2,0.2,0.4,0.5,0.4h0.1l0,0.1h-2.1l0-0.1
			h0.1c0.2,0,0.4-0.2,0.4-0.4V2c0-0.2-0.2-0.4-0.4-0.4h-0.1l0-0.1H46.8z"/>
		<path fill="#4A0E2A" d="M55,3.9c0,1.6-1.1,2.5-2.8,2.5c-1.7,0-2.8-1-2.8-2.5s1.1-2.5,2.8-2.5C53.9,1.4,55,2.4,55,3.9z M53.8,3.9
			c0-1.4-0.6-2.3-1.6-2.3c-1,0-1.6,0.9-1.6,2.3s0.6,2.3,1.6,2.3C53.2,6.2,53.8,5.3,53.8,3.9z"/>
	</g>
	<g>
		<path fill="#4A0E2A" d="M57.8,1.5c1.2,0,1.7,0.6,1.7,1.3c0,1.2-1.3,1.9-2.2,1.2l0-0.1c0,0,0.8,0.1,1.1-0.8c0-0.1,0-0.3,0-0.4
			c0-0.6-0.3-1-0.9-1H57v4.1c0,0.2,0.2,0.4,0.4,0.4h0.1l0,0.1h-2.1l0-0.1h0.1c0.2,0,0.4-0.2,0.4-0.4V2c0-0.2-0.2-0.4-0.4-0.4h-0.1
			l0-0.1L57.8,1.5z"/>
	</g>
	<g>
		<path fill="#4A0E2A" d="M63.6,6.4H60l0-0.1h0.1c0.2,0,0.4-0.2,0.4-0.4V2c0-0.2-0.2-0.4-0.4-0.4H60l0-0.1h2.7
			c0.3,0,0.7-0.1,0.8-0.1v1.2l-0.1,0V2.5c0-0.4-0.3-0.7-0.7-0.7h-1.2v2h0.9c0.3,0,0.6-0.3,0.6-0.6V3.2l0.1,0v1.6l-0.1,0V4.7
			c0-0.3-0.2-0.6-0.6-0.6h-0.9v2h0.9c0.7,0,1.2-0.4,1.4-1.1h0.1L63.6,6.4z"/>
		<path fill="#4A0E2A" d="M66.8,1.5c0.8,0,1.7,0.3,1.7,1.3c0,0.6-0.4,1.3-1.1,1.3c0.3,0.1,0.6,0.4,0.7,0.6c0,0,0.4,0.7,0.7,1
			c0.3,0.4,0.5,0.5,0.9,0.5v0.1h-0.7c-0.8,0-1.3-0.2-1.6-0.7c-0.2-0.3-0.5-1-0.6-1.2C66.6,4.2,66.4,4,66.2,4V3.9h0.2
			c0.4,0,0.8-0.2,0.9-0.8c0-0.1,0-0.2,0-0.3c0-0.7-0.4-1-0.8-1c-0.2,0-0.4,0-0.5,0v4.1c0,0.2,0.2,0.4,0.5,0.4h0.1l0,0.1h-2.1l0-0.1
			h0.1c0.2,0,0.4-0.2,0.4-0.4V2c0-0.2-0.2-0.4-0.4-0.4h-0.1l0-0.1H66.8z"/>
		<path fill="#4A0E2A" d="M73.6,2.6L73.6,2.6L73.6,2.6c-0.1-0.5-0.3-0.8-0.8-0.8h-0.9v4.1c0,0.2,0.2,0.4,0.4,0.4h0.1l0,0.1h-2.1
			l0-0.1h0.1c0.2,0,0.4-0.2,0.4-0.4V1.8h-0.9c-0.4,0-0.7,0.3-0.7,0.7v0.1l-0.1,0V1.4c0.1,0.1,0.5,0.1,0.8,0.1h2.8
			c0.3,0,0.7-0.1,0.8-0.1V2.6z"/>
		<path fill="#4A0E2A" d="M76.1,6.4H74l0-0.1h0.1c0.2,0,0.4-0.2,0.4-0.4V2c0-0.2-0.2-0.4-0.4-0.4H74l0-0.1h2.1l0,0.1h-0.1
			c-0.2,0-0.4,0.2-0.4,0.4v3.9C75.6,6.1,75.8,6.3,76.1,6.4L76.1,6.4L76.1,6.4z"/>
		<path fill="#4A0E2A" d="M80.3,6.4h-3.6l0-0.1h0.1c0.2,0,0.4-0.2,0.4-0.4V2c0-0.2-0.2-0.4-0.4-0.4h-0.1l0-0.1h2.7
			c0.3,0,0.7-0.1,0.8-0.1v1.2l-0.1,0V2.5c0-0.4-0.3-0.7-0.7-0.7h-1.2v2h0.9c0.3,0,0.6-0.3,0.6-0.6V3.2l0.1,0v1.6l-0.1,0V4.7
			c0-0.3-0.2-0.6-0.6-0.6h-0.9v2h0.9c0.7,0,1.2-0.4,1.4-1.1h0.1L80.3,6.4z"/>
	</g>
	<g>
		<path fill="#4A0E2A" d="M84.1,3.9c1.7,1.1,0.9,3.2-1.2,3.2c-1.7,0-2.4-1.6-1.5-2.7l0.1,0c-0.7,1.1,0,2.4,1.3,2.4
			c1.3,0,1.7-1.3,0.6-2.1l-1.2-0.8c-0.5-0.3-0.7-0.8-0.7-1.3c0.1-0.7,0.6-1.2,1.5-1.2c0.2,0,0.6,0,1,0.1h0.4l-0.1,1h-0.1
			c0-0.5-0.4-0.8-1-0.8c-0.5,0-0.9,0.3-0.9,0.7c0,0.3,0.2,0.5,0.5,0.6L84.1,3.9z"/>
	</g>
	<g>
		<path fill="#AE9F70" d="M7.9,8.8c0.9,0,1.4,0.5,1.4,1.4c0,1.1-1.2,1.6-2,1.2l0-0.1c0,0,1.2,0.2,1.5-0.8c0-0.1,0-0.3,0-0.4
			C8.9,9.5,8.5,9,7.9,9H7.1v4.2c0,0.2,0.2,0.4,0.4,0.4h0.1l0,0.1H6.1l0-0.1h0.1c0.2,0,0.4-0.2,0.4-0.4V9.3c0-0.2-0.2-0.4-0.4-0.4
			H6.1l0-0.1L7.9,8.8z"/>
		<path fill="#AE9F70" d="M11.8,9.5c0.9,0,1.4,0.4,1.4,1.1c0,0.6-0.5,1.1-1.1,1.2c0.2,0.1,0.4,0.3,0.5,0.5c0,0,0.3,0.4,0.6,0.8
			c0.3,0.3,0.5,0.5,0.9,0.5v0.1H14c-0.8,0-1.1-0.4-1.3-0.6c-0.1-0.1-0.6-0.9-0.7-1c-0.2-0.2-0.4-0.5-0.7-0.5v-0.1c0,0,0.2,0,0.4,0
			c0.4,0,0.8,0,1-0.6c0-0.1,0.1-0.2,0-0.4c0-0.5-0.4-0.8-0.9-0.9c-0.4,0-0.7,0-0.8,0v3.5c0,0.2,0.2,0.4,0.4,0.4h0.1l0,0.1h-1.4
			l0-0.1h0.1c0.2,0,0.4-0.2,0.4-0.4V9.9c0-0.2-0.2-0.4-0.4-0.4h-0.1l0-0.1H11.8z"/>
		<path fill="#AE9F70" d="M18.9,11.6c0,1.3-1.1,2.2-2.4,2.2c-1.3,0-2.4-0.9-2.4-2.2s1.1-2.2,2.4-2.2C17.8,9.4,18.9,10.3,18.9,11.6z
			 M18.4,11.6c0-1.2-0.8-2-1.8-2c-1,0-1.8,0.8-1.8,2s0.8,2,1.8,2C17.6,13.6,18.4,12.8,18.4,11.6z"/>
		<path fill="#AE9F70" d="M21.2,9.5c1,0,1.6,0.5,1.6,1.2c0,1.1-1.1,1.5-2,1.1v-0.1c0,0,1.1,0.3,1.5-0.7c0-0.1,0-0.3,0-0.4
			c0-0.6-0.4-0.9-1.1-0.9h-0.7v3.5c0,0.2,0.2,0.4,0.4,0.4H21l0,0.1h-1.5l0-0.1h0.1c0.2,0,0.4-0.2,0.4-0.4V10c0-0.2-0.2-0.4-0.4-0.4
			h-0.1l0-0.1H21.2z"/>
		<path fill="#AE9F70" d="M26.2,13.7h-2.8l0-0.1h0.1c0.2,0,0.4-0.2,0.4-0.4V10c0-0.2-0.2-0.4-0.4-0.4h-0.1l0-0.1h2
			c0.3,0,0.7-0.1,0.8-0.1v0.8l-0.1,0v-0.1c0-0.2-0.1-0.4-0.4-0.4h-1.5v1.8h1.2c0.2,0,0.3-0.1,0.3-0.3v-0.1l0.1,0v1l-0.1,0V12
			c0-0.2-0.1-0.3-0.3-0.3h-1.2v1.8h1.1c0.7,0,0.9-0.3,1.1-0.8h0.1L26.2,13.7z"/>
		<path fill="#AE9F70" d="M28.9,9.5c0.9,0,1.4,0.4,1.4,1.1c0,0.6-0.5,1.1-1.1,1.2c0.2,0.1,0.4,0.3,0.5,0.5c0,0,0.3,0.4,0.6,0.8
			c0.3,0.3,0.5,0.5,0.9,0.5v0.1H31c-0.8,0-1.1-0.4-1.3-0.6c-0.1-0.1-0.6-0.9-0.7-1c-0.2-0.2-0.4-0.5-0.7-0.5v-0.1c0,0,0.2,0,0.4,0
			c0.4,0,0.8,0,1-0.6c0-0.1,0.1-0.2,0-0.4c0-0.5-0.4-0.8-0.9-0.9c-0.4,0-0.7,0-0.8,0v3.5c0,0.2,0.2,0.4,0.4,0.4h0.1l0,0.1h-1.4
			l0-0.1h0.1c0.2,0,0.4-0.2,0.4-0.4V9.9c0-0.2-0.2-0.4-0.4-0.4h-0.1l0-0.1H28.9z"/>
		<path fill="#AE9F70" d="M34.2,9.5c0.3,0,0.7-0.1,0.8-0.1v0.8l-0.1,0v-0.1c0-0.2-0.1-0.4-0.4-0.4h-1.3v3.6c0,0.2,0.2,0.4,0.4,0.4
			h0.1l0,0.1h-1.4l0-0.1h0.1c0.2,0,0.4-0.2,0.4-0.4V9.7h-1.3c-0.2,0-0.4,0.2-0.4,0.4v0.1l-0.1,0V9.4c0.1,0,0.5,0.1,0.8,0.1H34.2z"/>
		<path fill="#AE9F70" d="M39.6,9.5L39.6,9.5L39.6,9.5c-0.4,0.1-0.6,0.2-0.7,0.4l-1.3,2v1.3c0,0.2,0.2,0.4,0.4,0.4H38l0,0.1h-1.4
			l0-0.1h0.1c0.2,0,0.4-0.2,0.4-0.4V12l-1.3-2c-0.1-0.2-0.4-0.4-0.6-0.4h-0.1V9.5h1.6v0.1h-0.1c-0.2,0-0.3,0.2-0.2,0.3l1,1.8
			l1.1-1.8c0.1-0.2,0-0.3-0.2-0.3h-0.1V9.5H39.6z"/>
		<path fill="#AE9F70" d="M44.1,8.8c1.5,0,2.5,1,2.5,2.5c0,1.5-1,2.4-2.5,2.4h-2.4l0-0.1h0.1c0.2,0,0.4-0.2,0.4-0.4V9.3
			c0-0.2-0.2-0.4-0.4-0.4h-0.1l0-0.1L44.1,8.8z M42.8,13.5h1.4c1.2,0,2-0.9,2-2.2c0-1.3-0.8-2.2-2-2.2h-1.4V13.5z"/>
		<path fill="#AE9F70" d="M50.1,13.7h-2.8l0-0.1h0.1c0.2,0,0.4-0.2,0.4-0.4V10c0-0.2-0.2-0.4-0.4-0.4h-0.1l0-0.1h2
			c0.3,0,0.7-0.1,0.8-0.1v0.8l-0.1,0v-0.1c0-0.2-0.1-0.4-0.4-0.4h-1.5v1.8h1.2c0.2,0,0.3-0.1,0.3-0.3v-0.1l0.1,0v1l-0.1,0V12
			c0-0.2-0.1-0.3-0.3-0.3h-1.2v1.8h1.1c0.7,0,0.9-0.3,1.1-0.8h0.1L50.1,13.7z"/>
		<path fill="#AE9F70" d="M55.4,9.5L55.4,9.5L55.4,9.5c-0.2,0.1-0.5,0.2-0.6,0.5l-1.4,3.1c0,0-0.3,0.5-0.3,0.7H53L51.2,10
			c-0.1-0.3-0.4-0.4-0.5-0.4h-0.1V9.5h1.4v0.1H52c-0.2,0-0.3,0.2-0.2,0.4l1.3,3.1l1.3-3c0.1-0.3-0.1-0.4-0.2-0.4H54V9.5H55.4z"/>
		<path fill="#AE9F70" d="M58.5,13.7h-2.8l0-0.1h0.1c0.2,0,0.4-0.2,0.4-0.4V10c0-0.2-0.2-0.4-0.4-0.4h-0.1l0-0.1h2
			c0.3,0,0.7-0.1,0.8-0.1v0.8l-0.1,0v-0.1c0-0.2-0.1-0.4-0.4-0.4h-1.5v1.8h1.2c0.2,0,0.3-0.1,0.3-0.3v-0.1l0.1,0v1l-0.1,0V12
			c0-0.2-0.1-0.3-0.3-0.3h-1.2v1.8h1.1c0.7,0,0.9-0.3,1.1-0.8h0.1L58.5,13.7z"/>
		<path fill="#AE9F70" d="M62.7,12.7l-0.4,1h-2.8l0-0.1h0.1c0.2,0,0.4-0.2,0.4-0.4V10c0-0.2-0.2-0.4-0.4-0.4h-0.1l0-0.1h1.5l0,0.1
			h-0.1c-0.2,0-0.4,0.2-0.4,0.4v3.5h1.1C62.2,13.5,62.4,13.2,62.7,12.7L62.7,12.7z"/>
		<path fill="#AE9F70" d="M67.9,11.6c0,1.3-1.1,2.2-2.4,2.2c-1.3,0-2.4-0.9-2.4-2.2s1.1-2.2,2.4-2.2C66.8,9.4,67.9,10.3,67.9,11.6z
			 M67.4,11.6c0-1.2-0.8-2-1.8-2c-1,0-1.8,0.8-1.8,2s0.8,2,1.8,2C66.5,13.6,67.4,12.8,67.4,11.6z"/>
		<path fill="#AE9F70" d="M70.1,9.5c1,0,1.6,0.5,1.6,1.2c0,1.1-1.1,1.5-2,1.1v-0.1c0,0,1.1,0.3,1.5-0.7c0-0.1,0-0.3,0-0.4
			c0-0.6-0.4-0.9-1.1-0.9h-0.7v3.5c0,0.2,0.2,0.4,0.4,0.4H70l0,0.1h-1.5l0-0.1h0.1c0.2,0,0.4-0.2,0.4-0.4V10c0-0.2-0.2-0.4-0.4-0.4
			h-0.1l0-0.1H70.1z"/>
		<path fill="#AE9F70" d="M75.2,13.7h-2.8l0-0.1h0.1c0.2,0,0.4-0.2,0.4-0.4V10c0-0.2-0.2-0.4-0.4-0.4h-0.1l0-0.1h2
			c0.3,0,0.7-0.1,0.8-0.1v0.8l-0.1,0v-0.1c0-0.2-0.1-0.4-0.4-0.4h-1.5v1.8h1.2c0.2,0,0.3-0.1,0.3-0.3v-0.1l0.1,0v1l-0.1,0V12
			c0-0.2-0.1-0.3-0.3-0.3h-1.2v1.8h1.1c0.7,0,0.9-0.3,1.1-0.8h0.1L75.2,13.7z"/>
		<path fill="#AE9F70" d="M77.9,9.5c0.9,0,1.4,0.4,1.4,1.1c0,0.6-0.5,1.1-1.1,1.2c0.2,0.1,0.4,0.3,0.5,0.5c0,0,0.3,0.4,0.6,0.8
			c0.3,0.3,0.5,0.5,0.9,0.5v0.1H80c-0.8,0-1.1-0.4-1.3-0.6c-0.1-0.1-0.6-0.9-0.7-1c-0.2-0.2-0.4-0.5-0.7-0.5v-0.1c0,0,0.2,0,0.4,0
			c0.4,0,0.8,0,1-0.6c0-0.1,0.1-0.2,0-0.4c0-0.5-0.4-0.8-0.9-0.9c-0.4,0-0.7,0-0.8,0v3.5c0,0.2,0.2,0.4,0.4,0.4h0.1l0,0.1h-1.4
			l0-0.1h0.1c0.2,0,0.4-0.2,0.4-0.4V9.9c0-0.2-0.2-0.4-0.4-0.4h-0.1l0-0.1H77.9z"/>
	</g>
</g>
</svg>
